<?xml version="1.0" encoding="UTF-8"?>
<svg xmlns="http://www.w3.org/2000/svg" xmlns:xlink="http://www.w3.org/1999/xlink" width="32px" height="32px" viewBox="0 0 32 31" version="1.1">
<g id="surface1">
<path style=" stroke:none;fill-rule:nonzero;fill:rgb(97.254902%,46.666667%,37.254903%);fill-opacity:1;" d="M 15.710938 0.183594 C 15.652344 0.351562 15.316406 0.703125 14.878906 1.039062 C 14.761719 1.128906 14.714844 1.144531 14.757812 1.066406 C 14.804688 0.992188 14.789062 0.933594 14.726562 0.933594 C 14.660156 0.933594 14.566406 1.042969 14.511719 1.179688 C 14.425781 1.398438 13.910156 1.625 13.621094 1.570312 C 13.566406 1.558594 13.558594 1.59375 13.589844 1.648438 C 13.664062 1.765625 13.390625 2 13.296875 1.902344 C 13.257812 1.863281 13.226562 2.019531 13.222656 2.242188 C 13.222656 2.601562 13.207031 2.628906 13.078125 2.46875 C 13.003906 2.367188 12.847656 2.285156 12.742188 2.285156 C 12.640625 2.285156 12.582031 2.316406 12.617188 2.351562 C 12.660156 2.390625 12.609375 2.476562 12.507812 2.550781 C 12.40625 2.625 12.355469 2.714844 12.398438 2.761719 C 12.441406 2.804688 12.574219 2.730469 12.691406 2.597656 L 12.90625 2.359375 L 12.90625 2.585938 C 12.90625 2.710938 12.863281 2.789062 12.8125 2.757812 C 12.757812 2.726562 12.691406 2.753906 12.671875 2.820312 C 12.644531 2.886719 12.539062 2.910156 12.398438 2.867188 C 12.238281 2.816406 12.191406 2.742188 12.238281 2.625 C 12.296875 2.46875 12.289062 2.46875 12.121094 2.601562 C 12.019531 2.683594 11.882812 2.800781 11.808594 2.855469 C 11.738281 2.914062 11.535156 2.960938 11.359375 2.960938 C 11.183594 2.960938 11.03125 3.007812 11.019531 3.066406 C 11.007812 3.121094 11.070312 3.152344 11.15625 3.136719 C 11.285156 3.113281 11.273438 3.148438 11.125 3.304688 C 11.019531 3.414062 10.890625 3.464844 10.84375 3.421875 C 10.789062 3.375 10.6875 3.359375 10.617188 3.386719 C 10.550781 3.417969 10.277344 3.390625 10.019531 3.335938 C 9.683594 3.261719 9.53125 3.265625 9.476562 3.351562 C 9.425781 3.433594 9.355469 3.429688 9.230469 3.328125 C 9.050781 3.183594 8.953125 3.257812 8.476562 3.902344 C 8.355469 4.050781 8.199219 4.253906 8.105469 4.34375 C 8.019531 4.429688 7.953125 4.53125 7.953125 4.566406 C 7.957031 4.597656 7.898438 4.683594 7.820312 4.757812 C 7.742188 4.835938 7.679688 4.855469 7.679688 4.804688 C 7.679688 4.753906 7.535156 4.730469 7.359375 4.757812 C 7.089844 4.792969 7.039062 4.769531 7.039062 4.582031 C 7.039062 4.460938 6.992188 4.363281 6.933594 4.363281 C 6.875 4.363281 6.828125 4.410156 6.828125 4.46875 C 6.828125 4.523438 6.773438 4.570312 6.714844 4.570312 C 6.652344 4.570312 6.628906 4.523438 6.667969 4.46875 C 6.703125 4.410156 6.632812 4.363281 6.511719 4.363281 C 6.367188 4.363281 6.292969 4.429688 6.292969 4.566406 C 6.292969 4.707031 6.207031 4.773438 6 4.800781 C 5.820312 4.820312 5.664062 4.929688 5.578125 5.089844 C 5.484375 5.28125 5.375 5.339844 5.171875 5.320312 C 5.023438 5.296875 4.90625 5.320312 4.917969 5.371094 C 4.96875 5.65625 4.890625 5.734375 4.582031 5.691406 C 4.378906 5.660156 4.277344 5.6875 4.304688 5.753906 C 4.324219 5.816406 4.414062 5.859375 4.511719 5.839844 C 4.601562 5.824219 4.710938 5.859375 4.746094 5.917969 C 4.785156 5.980469 4.730469 6.027344 4.632812 6.027344 C 4.527344 6.027344 4.480469 6.082031 4.511719 6.171875 C 4.574219 6.332031 4.203125 6.476562 4.117188 6.320312 C 4.089844 6.269531 4.085938 6.285156 4.101562 6.359375 C 4.117188 6.4375 4.1875 6.484375 4.25 6.46875 C 4.316406 6.457031 4.414062 6.535156 4.480469 6.648438 C 4.550781 6.773438 4.554688 6.855469 4.492188 6.855469 C 4.4375 6.855469 4.367188 6.800781 4.335938 6.726562 C 4.308594 6.652344 4.277344 6.695312 4.277344 6.820312 C 4.273438 6.972656 4.324219 7.039062 4.453125 7.027344 C 4.554688 7.019531 4.640625 7.078125 4.640625 7.167969 C 4.640625 7.25 4.699219 7.359375 4.773438 7.40625 C 4.847656 7.453125 4.90625 7.644531 4.90625 7.84375 C 4.90625 8.101562 4.960938 8.210938 5.125 8.257812 C 5.242188 8.296875 5.460938 8.441406 5.605469 8.585938 C 5.75 8.726562 5.921875 8.808594 5.980469 8.773438 C 6.078125 8.714844 6.054688 8.992188 5.914062 9.421875 C 5.894531 9.496094 5.921875 9.578125 5.980469 9.613281 C 6.03125 9.644531 6.078125 9.71875 6.078125 9.777344 C 6.078125 9.832031 6.03125 9.855469 5.96875 9.8125 C 5.910156 9.777344 5.785156 9.800781 5.703125 9.875 C 5.574219 9.976562 5.546875 9.957031 5.546875 9.777344 C 5.546875 9.65625 5.5 9.550781 5.441406 9.542969 C 5.34375 9.53125 5.246094 9.511719 5.066406 9.464844 C 5.039062 9.457031 5.066406 9.335938 5.121094 9.195312 C 5.226562 8.925781 4.90625 8.789062 4.746094 9.039062 C 4.644531 9.203125 4.261719 8.960938 4.335938 8.777344 C 4.453125 8.480469 4.214844 8.628906 3.894531 9.046875 C 3.695312 9.308594 3.460938 9.488281 3.273438 9.527344 C 3.082031 9.5625 2.992188 9.636719 3.03125 9.722656 C 3.0625 9.800781 3.011719 9.9375 2.921875 10.019531 C 2.773438 10.164062 2.773438 10.179688 2.929688 10.179688 C 3.019531 10.179688 3.09375 10.226562 3.09375 10.28125 C 3.09375 10.335938 3.019531 10.359375 2.933594 10.320312 C 2.710938 10.238281 2.734375 10.351562 2.988281 10.597656 C 3.222656 10.824219 3.273438 11.382812 3.066406 11.464844 C 2.96875 11.5 2.96875 11.515625 3.0625 11.519531 C 3.128906 11.527344 3.257812 11.4375 3.339844 11.320312 C 3.488281 11.117188 3.492188 11.121094 3.558594 11.433594 C 3.605469 11.660156 3.675781 11.746094 3.78125 11.703125 C 3.863281 11.671875 3.953125 11.703125 3.980469 11.769531 C 4.015625 11.859375 4.121094 11.84375 4.367188 11.714844 L 4.710938 11.53125 L 4.832031 11.84375 C 4.902344 12.015625 5.039062 12.179688 5.148438 12.210938 C 5.390625 12.289062 5.371094 12.882812 5.125 12.882812 C 5.03125 12.882812 5.003906 12.917969 5.066406 12.960938 C 5.1875 13.046875 5.210938 13.46875 5.09375 13.425781 C 5.050781 13.410156 4.910156 13.402344 4.792969 13.402344 C 4.671875 13.402344 4.601562 13.355469 4.640625 13.296875 C 4.675781 13.234375 4.757812 13.21875 4.816406 13.257812 C 4.875 13.292969 4.859375 13.226562 4.785156 13.105469 C 4.710938 12.992188 4.601562 12.917969 4.539062 12.949219 C 4.476562 12.976562 4.515625 12.929688 4.632812 12.835938 C 4.832031 12.683594 4.816406 12.675781 4.367188 12.660156 L 3.894531 12.644531 L 4.375 12.570312 C 4.800781 12.507812 4.761719 12.496094 4.03125 12.480469 C 3.585938 12.472656 3.1875 12.429688 3.15625 12.378906 C 3.054688 12.21875 2.425781 12.382812 2.375 12.585938 C 2.347656 12.695312 2.207031 12.808594 2.070312 12.839844 C 1.929688 12.875 1.828125 12.9375 1.84375 12.992188 C 1.855469 13.039062 1.78125 13.136719 1.675781 13.214844 C 1.566406 13.292969 1.472656 13.511719 1.460938 13.714844 C 1.445312 13.914062 1.390625 14.140625 1.34375 14.21875 C 1.285156 14.304688 1.300781 14.386719 1.386719 14.441406 C 1.558594 14.542969 1.429688 14.753906 1.195312 14.757812 C 1.09375 14.761719 1.179688 14.820312 1.375 14.886719 C 1.878906 15.058594 1.886719 15.199219 1.449219 15.589844 C 1.242188 15.773438 1.097656 15.96875 1.136719 16.019531 C 1.167969 16.070312 1.089844 16.144531 0.960938 16.175781 C 0.785156 16.222656 0.742188 16.292969 0.773438 16.480469 C 0.816406 16.675781 0.773438 16.726562 0.597656 16.734375 C 0.382812 16.75 0.382812 16.75 0.585938 16.804688 C 0.703125 16.828125 0.835938 16.90625 0.878906 16.96875 C 0.929688 17.042969 0.960938 17.007812 0.960938 16.882812 C 0.964844 16.679688 0.96875 16.679688 1.089844 16.875 C 1.179688 17.027344 1.179688 17.089844 1.082031 17.121094 C 0.84375 17.199219 0.964844 17.347656 1.441406 17.566406 C 1.921875 17.785156 1.921875 17.789062 1.707031 17.972656 C 1.585938 18.078125 1.464844 18.257812 1.441406 18.378906 C 1.417969 18.496094 1.371094 18.636719 1.339844 18.695312 C 1.308594 18.746094 1.328125 18.820312 1.386719 18.855469 C 1.445312 18.890625 1.460938 18.976562 1.417969 19.042969 C 1.269531 19.28125 1.285156 19.726562 1.445312 19.671875 C 1.605469 19.609375 1.921875 19.859375 1.921875 20.050781 C 1.921875 20.113281 1.960938 20.136719 2.015625 20.105469 C 2.070312 20.078125 2.144531 20.183594 2.179688 20.351562 C 2.234375 20.585938 2.296875 20.636719 2.457031 20.601562 C 2.835938 20.503906 3.226562 20.664062 3.167969 20.886719 C 3.128906 21.015625 3.167969 21.089844 3.265625 21.089844 C 3.34375 21.089844 3.40625 21.054688 3.402344 21.011719 C 3.367188 20.78125 3.433594 20.671875 3.625 20.671875 C 3.742188 20.671875 3.839844 20.625 3.839844 20.574219 C 3.839844 20.519531 3.984375 20.398438 4.160156 20.308594 C 4.335938 20.222656 4.480469 20.066406 4.480469 19.96875 C 4.484375 19.832031 4.507812 19.820312 4.574219 19.929688 C 4.640625 20.035156 4.675781 20.015625 4.71875 19.851562 C 4.757812 19.71875 4.871094 19.632812 4.996094 19.632812 C 5.15625 19.632812 5.199219 19.679688 5.15625 19.800781 C 5.105469 19.929688 5.070312 19.9375 5.003906 19.828125 C 4.929688 19.71875 4.910156 19.722656 4.90625 19.859375 C 4.90625 19.957031 4.949219 20.050781 5.003906 20.066406 C 5.15625 20.121094 5.1875 20.835938 5.035156 20.804688 C 4.964844 20.789062 4.90625 20.824219 4.90625 20.882812 C 4.90625 20.9375 5.003906 20.984375 5.121094 20.984375 C 5.359375 20.984375 5.390625 21.09375 5.214844 21.265625 C 5.148438 21.332031 4.9375 21.359375 4.726562 21.324219 C 4.46875 21.285156 4.320312 21.3125 4.25 21.410156 C 4.1875 21.511719 4.175781 21.472656 4.21875 21.285156 C 4.261719 21.09375 4.234375 20.996094 4.113281 20.949219 C 3.988281 20.902344 3.945312 20.953125 3.945312 21.144531 C 3.945312 21.285156 3.894531 21.402344 3.835938 21.402344 C 3.769531 21.402344 3.75 21.441406 3.78125 21.496094 C 3.8125 21.542969 3.753906 21.578125 3.652344 21.570312 C 3.515625 21.5625 3.476562 21.617188 3.503906 21.8125 C 3.535156 22.039062 3.519531 22.050781 3.367188 21.925781 C 3.089844 21.703125 2.949219 21.941406 2.980469 22.5625 C 2.996094 22.867188 3.019531 23.199219 3.023438 23.296875 C 3.035156 23.507812 3.109375 23.523438 3.289062 23.347656 C 3.402344 23.246094 3.425781 23.25 3.390625 23.375 C 3.375 23.457031 3.425781 23.519531 3.5 23.503906 C 3.632812 23.480469 3.75 23.550781 4.160156 23.910156 C 4.296875 24.035156 4.375 24.050781 4.40625 23.960938 C 4.457031 23.820312 5.011719 23.742188 5.011719 23.878906 C 5.011719 24.132812 4.585938 24.347656 4.582031 24.089844 C 4.570312 23.863281 4.566406 23.859375 4.484375 24.050781 C 4.421875 24.195312 4.449219 24.300781 4.566406 24.386719 C 4.65625 24.460938 4.6875 24.515625 4.632812 24.515625 C 4.574219 24.515625 4.609375 24.5625 4.691406 24.621094 C 4.800781 24.6875 4.8125 24.71875 4.71875 24.726562 C 4.511719 24.726562 4.566406 24.933594 4.773438 24.933594 C 4.933594 24.9375 4.9375 24.949219 4.800781 25.035156 C 4.660156 25.125 4.660156 25.136719 4.8125 25.140625 C 4.992188 25.140625 5.039062 25.429688 4.886719 25.625 C 4.832031 25.691406 4.832031 25.769531 4.878906 25.800781 C 4.980469 25.863281 5.246094 25.726562 5.238281 25.625 C 5.210938 25.425781 5.238281 25.347656 5.339844 25.347656 C 5.402344 25.347656 5.425781 25.390625 5.390625 25.445312 C 5.3125 25.570312 5.429688 25.640625 5.871094 25.710938 C 6.070312 25.75 6.265625 25.828125 6.304688 25.890625 C 6.394531 26.023438 6.613281 25.90625 6.613281 25.71875 C 6.613281 25.640625 6.6875 25.550781 6.785156 25.515625 C 7.023438 25.425781 7.148438 25.4375 7.148438 25.554688 C 7.148438 25.613281 7.078125 25.660156 6.996094 25.660156 C 6.910156 25.660156 6.742188 25.828125 6.613281 26.027344 C 6.425781 26.316406 6.347656 26.371094 6.234375 26.277344 C 6.117188 26.183594 6.097656 26.230469 6.113281 26.507812 C 6.128906 26.777344 6.078125 26.875 5.894531 26.957031 C 5.535156 27.109375 5.601562 27.183594 6.054688 27.136719 C 6.378906 27.097656 6.425781 27.113281 6.320312 27.230469 C 6.246094 27.300781 6.191406 27.484375 6.199219 27.628906 L 6.207031 27.894531 L 6.289062 27.632812 C 6.355469 27.410156 6.382812 27.398438 6.449219 27.554688 C 6.496094 27.65625 6.609375 27.738281 6.703125 27.738281 C 6.832031 27.742188 6.84375 27.765625 6.746094 27.828125 C 6.644531 27.882812 6.683594 27.945312 6.878906 28.050781 C 7.023438 28.128906 7.148438 28.230469 7.148438 28.289062 C 7.148438 28.339844 7.269531 28.355469 7.414062 28.320312 C 7.605469 28.273438 7.703125 28.300781 7.75 28.414062 C 7.796875 28.539062 7.84375 28.546875 7.957031 28.453125 C 8.042969 28.386719 8.105469 28.367188 8.105469 28.402344 C 8.105469 28.433594 8.207031 28.367188 8.324219 28.253906 C 8.492188 28.089844 8.515625 28.003906 8.433594 27.898438 C 8.339844 27.796875 8.355469 27.75 8.484375 27.695312 C 8.726562 27.609375 8.769531 27.617188 8.691406 27.738281 C 8.65625 27.796875 8.667969 27.84375 8.71875 27.84375 C 8.875 27.84375 9.179688 27.246094 9.109375 27.074219 C 9.070312 26.980469 9.109375 26.824219 9.1875 26.730469 C 9.269531 26.632812 9.285156 26.585938 9.222656 26.621094 C 9.164062 26.652344 9.039062 26.554688 8.949219 26.402344 C 8.785156 26.121094 8.789062 26.117188 9.054688 26.101562 C 9.300781 26.089844 9.308594 26.101562 9.121094 26.179688 C 8.9375 26.257812 8.953125 26.269531 9.238281 26.277344 C 9.417969 26.277344 9.601562 26.320312 9.644531 26.363281 C 9.691406 26.402344 9.769531 26.445312 9.824219 26.449219 C 9.878906 26.460938 9.957031 26.476562 10 26.484375 C 10.042969 26.5 10.28125 26.5 10.535156 26.492188 C 10.878906 26.480469 10.988281 26.511719 10.988281 26.636719 C 10.988281 26.730469 11.0625 26.804688 11.148438 26.804688 C 11.339844 26.804688 11.359375 26.632812 11.171875 26.558594 C 11.09375 26.527344 11.113281 26.507812 11.226562 26.5 C 11.328125 26.496094 11.414062 26.558594 11.414062 26.648438 C 11.414062 26.730469 11.472656 26.804688 11.546875 26.804688 C 11.636719 26.808594 11.625 26.839844 11.519531 26.917969 C 11.390625 27.003906 11.402344 27.019531 11.59375 26.980469 C 11.914062 26.910156 11.675781 27.308594 11.34375 27.382812 C 11.1875 27.425781 11.136719 27.503906 11.167969 27.628906 C 11.195312 27.734375 11.167969 27.851562 11.105469 27.886719 C 11.039062 27.925781 10.988281 27.902344 10.988281 27.84375 C 10.988281 27.78125 10.945312 27.753906 10.886719 27.785156 C 10.804688 27.835938 10.792969 28.132812 10.871094 28.46875 C 10.875 28.5 11.050781 28.59375 11.253906 28.671875 C 11.574219 28.796875 11.78125 29.011719 11.546875 28.972656 C 11.355469 28.941406 10.953125 28.988281 11.003906 29.035156 C 11.035156 29.066406 11.199219 29.109375 11.371094 29.136719 C 11.542969 29.15625 11.871094 29.207031 12.105469 29.246094 C 12.378906 29.292969 12.484375 29.28125 12.394531 29.21875 C 12.222656 29.097656 12.507812 28.824219 12.6875 28.925781 C 12.753906 28.96875 12.800781 28.921875 12.800781 28.832031 C 12.800781 28.746094 12.859375 28.671875 12.933594 28.671875 C 13.023438 28.671875 13.070312 28.460938 13.082031 27.996094 C 13.097656 27.3125 13.054688 27.21875 12.816406 27.453125 C 12.710938 27.554688 12.667969 27.550781 12.585938 27.425781 C 12.511719 27.3125 12.542969 27.246094 12.703125 27.171875 C 13.050781 27.019531 13.285156 27.230469 13.242188 27.644531 C 13.210938 27.949219 13.226562 27.972656 13.382812 27.847656 C 13.523438 27.726562 13.542969 27.734375 13.484375 27.878906 C 13.445312 27.972656 13.460938 28.050781 13.519531 28.050781 C 13.574219 28.050781 13.609375 28.191406 13.601562 28.367188 C 13.589844 28.539062 13.621094 28.703125 13.667969 28.734375 C 13.722656 28.765625 13.734375 28.832031 13.703125 28.886719 C 13.667969 28.941406 13.695312 28.984375 13.761719 28.984375 C 13.824219 28.984375 13.851562 29.03125 13.8125 29.089844 C 13.777344 29.144531 13.820312 29.191406 13.902344 29.191406 C 13.996094 29.191406 14.085938 29.34375 14.128906 29.566406 C 14.199219 29.933594 14.628906 30.4375 14.878906 30.4375 C 14.949219 30.4375 15.0625 30.558594 15.125 30.699219 C 15.324219 31.121094 16.574219 31.089844 17.050781 30.648438 C 17.230469 30.476562 17.433594 30.335938 17.5 30.335938 C 17.5625 30.335938 17.585938 30.292969 17.550781 30.242188 C 17.519531 30.191406 17.5625 30.121094 17.644531 30.089844 C 17.726562 30.066406 17.828125 29.882812 17.871094 29.691406 C 17.914062 29.503906 18.046875 29.28125 18.164062 29.199219 C 18.378906 29.058594 18.378906 29.050781 18.175781 28.972656 C 17.972656 28.894531 18.199219 28.824219 18.484375 28.871094 C 18.539062 28.878906 18.542969 28.839844 18.507812 28.777344 C 18.46875 28.71875 18.507812 28.648438 18.582031 28.617188 C 18.746094 28.558594 18.820312 28.050781 18.667969 28.050781 C 18.613281 28.050781 18.597656 28.128906 18.632812 28.222656 C 18.683594 28.351562 18.660156 28.382812 18.542969 28.335938 C 18.433594 28.292969 18.390625 28.34375 18.394531 28.496094 C 18.394531 28.625 18.324219 28.734375 18.214844 28.757812 C 18.019531 28.792969 17.929688 28.414062 18.117188 28.34375 C 18.378906 28.242188 18.339844 27.769531 18.078125 27.816406 C 17.796875 27.867188 17.753906 27.753906 17.921875 27.375 C 17.984375 27.234375 18.015625 27.21875 18.019531 27.324219 C 18.027344 27.425781 18.058594 27.4375 18.105469 27.363281 C 18.179688 27.253906 18.539062 27.109375 18.851562 27.050781 C 18.929688 27.042969 18.992188 27.105469 18.996094 27.203125 C 19.003906 27.3125 19.023438 27.328125 19.054688 27.246094 C 19.089844 27.171875 19.1875 27.113281 19.289062 27.113281 C 19.429688 27.121094 19.441406 27.136719 19.316406 27.207031 C 19.230469 27.261719 19.207031 27.355469 19.257812 27.429688 C 19.316406 27.53125 19.273438 27.546875 19.105469 27.503906 C 18.929688 27.457031 18.894531 27.472656 18.976562 27.566406 C 19.035156 27.640625 19.066406 27.878906 19.039062 28.101562 C 19.003906 28.542969 19.148438 28.925781 19.3125 28.824219 C 19.371094 28.789062 19.40625 28.824219 19.386719 28.902344 C 19.371094 28.988281 19.457031 29.03125 19.625 29.019531 C 19.777344 29.011719 20.046875 29.046875 20.238281 29.105469 C 20.511719 29.1875 20.617188 29.175781 20.746094 29.050781 C 20.953125 28.847656 20.949219 28.777344 20.71875 28.773438 C 20.558594 28.761719 20.566406 28.75 20.746094 28.679688 C 20.863281 28.636719 21.019531 28.621094 21.09375 28.648438 C 21.253906 28.703125 21.273438 28.507812 21.121094 28.414062 C 21.054688 28.375 21.039062 28.304688 21.070312 28.246094 C 21.105469 28.195312 21.1875 28.179688 21.246094 28.222656 C 21.316406 28.261719 21.332031 28.242188 21.289062 28.167969 C 21.246094 28.101562 21.265625 28.050781 21.328125 28.050781 C 21.386719 28.050781 21.433594 27.917969 21.425781 27.765625 C 21.414062 27.53125 21.402344 27.519531 21.367188 27.707031 C 21.300781 28.011719 20.90625 27.988281 20.90625 27.675781 C 20.90625 27.550781 20.835938 27.421875 20.746094 27.390625 C 20.660156 27.355469 20.585938 27.207031 20.585938 27.058594 C 20.585938 26.910156 20.628906 26.820312 20.683594 26.851562 C 20.734375 26.882812 20.800781 26.851562 20.828125 26.777344 C 20.878906 26.621094 21.246094 26.605469 21.359375 26.75 C 21.402344 26.808594 21.441406 26.777344 21.441406 26.671875 C 21.441406 26.574219 21.492188 26.492188 21.558594 26.492188 C 21.621094 26.492188 21.648438 26.558594 21.617188 26.640625 C 21.585938 26.730469 21.601562 26.824219 21.660156 26.859375 C 21.710938 26.890625 21.761719 26.828125 21.761719 26.71875 C 21.761719 26.355469 22.292969 26.351562 22.367188 26.714844 C 22.398438 26.875 22.46875 27.011719 22.523438 27.011719 C 22.644531 27.011719 22.640625 26.730469 22.511719 26.5 C 22.433594 26.351562 22.453125 26.320312 22.644531 26.335938 C 22.917969 26.355469 23.039062 26.71875 22.917969 27.152344 C 22.84375 27.421875 22.859375 27.445312 23.078125 27.40625 C 23.296875 27.363281 23.324219 27.394531 23.3125 27.710938 C 23.296875 28.136719 23.414062 28.230469 23.675781 28.003906 C 23.800781 27.886719 23.898438 27.867188 23.941406 27.941406 C 23.980469 27.996094 23.957031 28.050781 23.894531 28.050781 C 23.53125 28.050781 23.9375 28.320312 24.367188 28.367188 C 24.820312 28.417969 24.890625 28.402344 24.988281 28.191406 C 25.070312 28.007812 25.167969 27.960938 25.402344 27.988281 C 25.566406 28.007812 25.707031 27.980469 25.707031 27.929688 C 25.707031 27.882812 25.636719 27.84375 25.546875 27.84375 C 25.414062 27.84375 25.417969 27.789062 25.574219 27.484375 C 25.742188 27.144531 26.011719 27.03125 25.945312 27.316406 C 25.925781 27.382812 25.960938 27.410156 26.027344 27.375 C 26.085938 27.339844 26.113281 27.269531 26.078125 27.21875 C 26.046875 27.171875 26.085938 27.105469 26.160156 27.074219 C 26.265625 27.019531 26.265625 27 26.160156 26.949219 C 26.085938 26.917969 26.027344 26.828125 26.027344 26.75 C 26.027344 26.667969 25.945312 26.636719 25.8125 26.667969 C 25.652344 26.710938 25.601562 26.671875 25.601562 26.511719 C 25.601562 26.394531 25.550781 26.269531 25.488281 26.226562 C 25.429688 26.191406 25.390625 26.058594 25.40625 25.933594 C 25.429688 25.796875 25.382812 25.707031 25.28125 25.695312 C 25.195312 25.691406 25.066406 25.679688 25.003906 25.671875 C 24.9375 25.664062 24.890625 25.597656 24.890625 25.523438 C 24.890625 25.332031 25.28125 25.378906 25.441406 25.585938 C 25.578125 25.773438 25.871094 25.835938 25.761719 25.660156 C 25.683594 25.546875 26.003906 25.632812 26.207031 25.789062 C 26.292969 25.851562 26.378906 25.816406 26.464844 25.679688 C 26.542969 25.5625 26.671875 25.5 26.789062 25.53125 C 26.929688 25.566406 26.988281 25.523438 26.988281 25.386719 C 26.988281 25.1875 27.246094 24.90625 27.53125 24.796875 C 27.621094 24.761719 27.589844 24.742188 27.449219 24.734375 C 27.289062 24.726562 27.226562 24.667969 27.246094 24.542969 C 27.265625 24.445312 27.226562 24.292969 27.15625 24.214844 C 27.09375 24.132812 27.050781 24.039062 27.066406 24.007812 C 27.082031 23.972656 27.054688 23.941406 27.011719 23.9375 C 26.734375 23.90625 26.566406 23.753906 26.660156 23.640625 C 26.726562 23.566406 26.785156 23.386719 26.792969 23.234375 C 26.820312 22.964844 27.308594 22.796875 27.308594 23.0625 C 27.308594 23.121094 27.375 23.167969 27.460938 23.167969 C 27.566406 23.167969 27.601562 23.105469 27.550781 22.984375 C 27.5 22.835938 27.515625 22.828125 27.632812 22.933594 C 27.824219 23.105469 28.273438 23.09375 28.523438 22.90625 C 28.632812 22.824219 28.761719 22.78125 28.8125 22.808594 C 28.851562 22.835938 28.929688 22.804688 28.96875 22.734375 C 29.019531 22.664062 29.003906 22.640625 28.921875 22.6875 C 28.847656 22.734375 28.800781 22.695312 28.800781 22.59375 C 28.800781 22.503906 28.847656 22.457031 28.910156 22.492188 C 28.980469 22.539062 28.996094 22.460938 28.949219 22.269531 C 28.863281 21.914062 28.800781 21.828125 28.800781 22.050781 C 28.800781 22.144531 28.746094 22.253906 28.675781 22.292969 C 28.597656 22.339844 28.574219 22.246094 28.601562 21.988281 C 28.644531 21.640625 28.59375 21.554688 28.347656 21.597656 C 28.304688 21.601562 28.265625 21.5625 28.265625 21.503906 C 28.265625 21.449219 28.199219 21.402344 28.105469 21.402344 C 27.9375 21.402344 27.886719 21.136719 28.039062 21.046875 C 28.089844 21.015625 28.105469 20.859375 28.074219 20.699219 C 28.027344 20.457031 28.042969 20.433594 28.179688 20.542969 C 28.265625 20.609375 28.375 20.636719 28.414062 20.59375 C 28.457031 20.554688 28.542969 20.605469 28.609375 20.714844 C 28.671875 20.824219 28.746094 20.859375 28.785156 20.804688 C 28.820312 20.746094 29.070312 20.671875 29.332031 20.636719 C 29.601562 20.605469 29.863281 20.574219 29.921875 20.566406 C 29.980469 20.554688 29.910156 20.511719 29.761719 20.464844 C 29.5 20.382812 29.5 20.382812 29.738281 20.371094 C 29.878906 20.367188 29.957031 20.316406 29.921875 20.257812 C 29.882812 20.199219 29.921875 20.152344 29.996094 20.152344 C 30.128906 20.152344 30.339844 19.90625 30.390625 19.6875 C 30.40625 19.628906 30.480469 19.511719 30.554688 19.425781 C 30.644531 19.328125 30.683594 19.117188 30.652344 18.855469 C 30.625 18.628906 30.597656 18.382812 30.59375 18.308594 C 30.582031 18.238281 30.554688 18.199219 30.527344 18.226562 C 30.476562 18.277344 30.1875 18.023438 30.1875 17.925781 C 30.1875 17.894531 30.25 17.867188 30.335938 17.867188 C 30.414062 17.867188 30.539062 17.796875 30.613281 17.710938 C 30.726562 17.578125 30.699219 17.558594 30.410156 17.558594 C 29.953125 17.558594 29.996094 17.386719 30.480469 17.308594 C 31.226562 17.195312 31.382812 17.15625 31.441406 17.101562 C 31.472656 17.0625 31.441406 17.039062 31.367188 17.039062 C 31.273438 17.039062 31.253906 16.953125 31.296875 16.773438 C 31.332031 16.628906 31.328125 16.449219 31.285156 16.382812 C 31.242188 16.316406 31.1875 16.140625 31.167969 16 C 31.121094 15.628906 30.992188 15.542969 30.789062 15.738281 C 30.625 15.894531 30.613281 15.894531 30.613281 15.691406 C 30.613281 15.566406 30.542969 15.480469 30.449219 15.480469 C 30.355469 15.480469 30.308594 15.4375 30.339844 15.386719 C 30.375 15.332031 30.347656 15.269531 30.277344 15.25 C 30.199219 15.226562 30.230469 15.136719 30.367188 15.007812 C 30.5 14.875 30.585938 14.660156 30.597656 14.410156 C 30.601562 14.191406 30.632812 13.96875 30.671875 13.910156 C 30.710938 13.851562 30.683594 13.738281 30.609375 13.65625 C 30.515625 13.550781 30.515625 13.503906 30.601562 13.503906 C 30.828125 13.503906 30.71875 13.320312 30.453125 13.257812 C 30.148438 13.179688 30.089844 12.984375 30.375 12.984375 C 30.515625 12.980469 30.527344 12.964844 30.414062 12.890625 C 30.335938 12.84375 30.179688 12.824219 30.070312 12.855469 C 29.9375 12.886719 29.867188 12.851562 29.867188 12.753906 C 29.867188 12.539062 29.359375 12.351562 28.703125 12.316406 C 28.199219 12.296875 28.101562 12.34375 28.148438 12.601562 C 28.160156 12.652344 28.117188 12.660156 28.054688 12.621094 C 27.996094 12.585938 27.945312 12.605469 27.945312 12.664062 C 27.945312 12.722656 27.792969 12.742188 27.574219 12.707031 C 27.332031 12.667969 27.199219 12.691406 27.199219 12.761719 C 27.199219 12.832031 27.382812 12.886719 27.601562 12.898438 L 28 12.90625 L 27.601562 13.015625 C 27.382812 13.078125 27.199219 13.1875 27.199219 13.265625 C 27.199219 13.339844 27.125 13.402344 27.035156 13.402344 C 26.859375 13.402344 26.859375 13.089844 27.039062 12.960938 C 27.097656 12.917969 27.050781 12.882812 26.933594 12.875 C 26.71875 12.867188 26.71875 12.867188 26.933594 12.777344 C 27.050781 12.730469 27.082031 12.683594 27.007812 12.679688 C 26.910156 12.675781 26.890625 12.601562 26.9375 12.457031 C 27.070312 12.035156 27.0625 11.894531 26.890625 11.816406 C 26.792969 11.769531 26.894531 11.761719 27.113281 11.796875 C 27.347656 11.828125 27.601562 11.796875 27.734375 11.71875 C 27.929688 11.597656 27.980469 11.613281 28.144531 11.824219 C 28.292969 12.015625 28.378906 12.039062 28.582031 11.96875 C 28.832031 11.878906 28.832031 11.875 28.5 11.8125 C 28.113281 11.734375 28.039062 11.53125 28.398438 11.53125 C 28.65625 11.527344 28.933594 11.394531 28.917969 11.289062 C 28.910156 11.25 28.910156 11.183594 28.917969 11.140625 C 28.929688 11.101562 28.9375 10.992188 28.945312 10.90625 C 28.953125 10.820312 29.046875 10.757812 29.148438 10.769531 C 29.382812 10.785156 29.390625 10.539062 29.164062 10.449219 C 29.03125 10.40625 29.019531 10.351562 29.109375 10.25 C 29.199219 10.140625 29.164062 10.082031 28.960938 9.992188 C 28.8125 9.925781 28.691406 9.8125 28.691406 9.734375 C 28.691406 9.652344 28.597656 9.503906 28.480469 9.402344 C 28.367188 9.304688 28.292969 9.183594 28.320312 9.136719 C 28.351562 9.09375 28.296875 9.03125 28.214844 9 C 28.003906 8.925781 28.003906 9.078125 28.214844 9.246094 C 28.410156 9.40625 28.363281 9.484375 28.121094 9.390625 C 28.027344 9.355469 27.945312 9.226562 27.941406 9.105469 C 27.941406 8.894531 27.9375 8.886719 27.785156 9.074219 C 27.648438 9.257812 27.625 9.261719 27.457031 9.09375 C 27.289062 8.933594 27.265625 8.945312 27.007812 9.292969 C 26.730469 9.675781 26.617188 9.734375 26.507812 9.558594 C 26.394531 9.386719 26.238281 9.445312 26.238281 9.652344 C 26.238281 9.761719 26.296875 9.875 26.375 9.90625 C 26.480469 9.945312 26.476562 9.957031 26.367188 9.960938 C 26.292969 9.96875 26.199219 9.875 26.148438 9.761719 C 26.105469 9.640625 26.03125 9.546875 25.988281 9.550781 C 25.679688 9.597656 25.644531 9.261719 25.953125 9.203125 C 26.21875 9.152344 26.261719 9.117188 26.132812 9.039062 C 26.027344 8.96875 26.015625 8.941406 26.105469 8.933594 C 26.179688 8.933594 26.238281 8.882812 26.238281 8.824219 C 26.238281 8.761719 26.191406 8.742188 26.132812 8.777344 C 26.074219 8.816406 26.027344 8.800781 26.027344 8.742188 C 26.027344 8.691406 26.148438 8.617188 26.296875 8.582031 C 26.449219 8.542969 26.539062 8.46875 26.507812 8.414062 C 26.46875 8.359375 26.515625 8.34375 26.625 8.382812 C 26.753906 8.429688 26.785156 8.410156 26.730469 8.328125 C 26.6875 8.257812 26.71875 8.207031 26.8125 8.207031 C 26.988281 8.207031 27.09375 7.988281 27.09375 7.636719 C 27.09375 7.5 27.152344 7.367188 27.226562 7.335938 C 27.332031 7.28125 27.332031 7.261719 27.226562 7.210938 C 27.152344 7.179688 27.09375 7.078125 27.09375 6.992188 C 27.09375 6.867188 27.125 6.855469 27.242188 6.957031 C 27.40625 7.085938 27.585938 6.933594 27.464844 6.753906 C 27.429688 6.691406 27.484375 6.679688 27.59375 6.714844 C 27.75 6.773438 27.761719 6.757812 27.652344 6.644531 C 27.578125 6.566406 27.519531 6.4375 27.519531 6.351562 C 27.519531 6.265625 27.433594 6.101562 27.332031 5.988281 C 27.171875 5.8125 27.171875 5.792969 27.316406 5.84375 C 27.40625 5.875 27.550781 5.859375 27.636719 5.808594 C 27.742188 5.738281 27.707031 5.71875 27.492188 5.714844 C 27.332031 5.714844 27.199219 5.675781 27.199219 5.628906 C 27.199219 5.589844 27.050781 5.496094 26.871094 5.429688 C 26.6875 5.367188 26.570312 5.261719 26.609375 5.199219 C 26.652344 5.136719 26.613281 5.117188 26.511719 5.152344 C 26.40625 5.195312 26.347656 5.15625 26.347656 5.042969 C 26.347656 4.949219 26.308594 4.894531 26.261719 4.925781 C 26.214844 4.949219 26.089844 4.882812 25.996094 4.773438 C 25.894531 4.664062 25.738281 4.570312 25.648438 4.570312 C 25.558594 4.570312 25.507812 4.523438 25.546875 4.46875 C 25.585938 4.410156 25.5 4.375 25.347656 4.382812 C 25.199219 4.398438 25.105469 4.441406 25.125 4.476562 C 25.1875 4.578125 24.84375 4.710938 24.601562 4.679688 C 24.492188 4.667969 24.433594 4.707031 24.46875 4.761719 C 24.507812 4.820312 24.484375 4.898438 24.425781 4.933594 C 24.273438 5.027344 24 4.730469 24 4.472656 C 24 4.351562 23.929688 4.257812 23.839844 4.257812 C 23.753906 4.257812 23.679688 4.203125 23.679688 4.125 C 23.679688 3.96875 23.070312 3.429688 22.890625 3.429688 C 22.820312 3.429688 22.710938 3.375 22.652344 3.320312 C 22.570312 3.242188 22.363281 3.25 21.941406 3.355469 C 21.609375 3.445312 21.324219 3.492188 21.300781 3.464844 C 21.273438 3.445312 21.148438 3.402344 21.011719 3.375 C 20.6875 3.3125 20.613281 3.226562 20.800781 3.117188 C 20.929688 3.039062 20.917969 3.011719 20.742188 2.949219 C 20.367188 2.820312 20.234375 2.679688 20.394531 2.582031 C 20.496094 2.519531 20.484375 2.5 20.347656 2.492188 C 20.230469 2.492188 20.160156 2.570312 20.160156 2.695312 C 20.160156 2.835938 20.105469 2.882812 19.996094 2.839844 C 19.871094 2.792969 19.863281 2.746094 19.957031 2.640625 C 20.054688 2.523438 20.03125 2.492188 19.855469 2.492188 C 19.707031 2.492188 19.652344 2.539062 19.691406 2.644531 C 19.734375 2.753906 19.664062 2.789062 19.417969 2.785156 C 19.082031 2.773438 18.828125 2.597656 19.148438 2.597656 C 19.242188 2.597656 19.285156 2.546875 19.246094 2.484375 C 19.210938 2.421875 19.089844 2.394531 18.976562 2.421875 C 18.820312 2.460938 18.773438 2.421875 18.773438 2.242188 C 18.773438 1.941406 18.582031 1.765625 18.246094 1.765625 C 18.046875 1.761719 18.015625 1.738281 18.121094 1.671875 C 18.230469 1.605469 18.171875 1.558594 17.910156 1.5 C 17.515625 1.417969 17.136719 1.074219 17.246094 0.902344 C 17.285156 0.835938 17.226562 0.820312 17.082031 0.855469 C 16.832031 0.917969 16.785156 0.835938 16.976562 0.648438 C 17.066406 0.5625 17.039062 0.546875 16.871094 0.585938 C 16.699219 0.632812 16.617188 0.585938 16.542969 0.390625 C 16.390625 -0.0117188 15.835938 -0.152344 15.710938 0.183594 Z M 16.433594 1.558594 C 16.785156 2.382812 16.789062 2.390625 17.609375 2.390625 C 18.527344 2.390625 18.550781 2.503906 17.792969 3.148438 L 17.230469 3.621094 L 17.367188 4.234375 C 17.601562 5.34375 17.507812 5.417969 16.617188 4.835938 L 16.074219 4.476562 L 15.492188 4.839844 C 14.601562 5.398438 14.523438 5.339844 14.71875 4.300781 L 14.851562 3.621094 L 14.246094 3.097656 C 13.535156 2.476562 13.566406 2.410156 14.550781 2.367188 C 15.359375 2.332031 15.3125 2.375 15.734375 1.40625 C 16.039062 0.722656 16.078125 0.730469 16.433594 1.558594 Z M 12.179688 3.632812 C 12.28125 3.785156 12.347656 3.808594 12.453125 3.71875 C 12.554688 3.636719 12.628906 3.636719 12.710938 3.714844 C 12.847656 3.847656 12.734375 4.050781 12.523438 4.050781 C 12.4375 4.050781 12.246094 4.128906 12.101562 4.222656 C 11.644531 4.515625 11.195312 3.96875 11.578125 3.589844 C 11.808594 3.371094 12.027344 3.386719 12.179688 3.632812 Z M 20.421875 3.632812 C 20.792969 4.03125 20.351562 4.507812 19.882812 4.207031 C 19.742188 4.125 19.5625 4.050781 19.472656 4.050781 C 19.375 4.050781 19.308594 3.957031 19.308594 3.839844 C 19.308594 3.671875 19.355469 3.636719 19.503906 3.683594 C 19.621094 3.71875 19.761719 3.675781 19.839844 3.585938 C 20.019531 3.375 20.199219 3.386719 20.421875 3.632812 Z M 19.003906 4.539062 C 19.199219 4.578125 19.296875 4.648438 19.265625 4.730469 C 19.207031 4.886719 19.648438 5.027344 20.085938 4.992188 C 20.355469 4.972656 20.375 4.992188 20.320312 5.289062 C 20.273438 5.554688 20.296875 5.609375 20.464844 5.609375 C 20.574219 5.609375 20.753906 5.730469 20.851562 5.878906 L 21.035156 6.148438 L 20.464844 6.082031 C 20.054688 6.03125 19.9375 6.046875 20.054688 6.125 C 20.273438 6.269531 20.074219 6.257812 19.507812 6.09375 C 19.246094 6.019531 18.976562 5.980469 18.90625 6 C 18.832031 6.027344 18.773438 5.988281 18.773438 5.921875 C 18.773438 5.859375 18.730469 5.828125 18.683594 5.859375 C 18.628906 5.890625 18.5 5.824219 18.398438 5.714844 C 18.238281 5.542969 18.175781 5.53125 18.042969 5.636719 C 17.914062 5.738281 17.894531 5.738281 17.957031 5.636719 C 18.070312 5.453125 17.867188 5.476562 17.707031 5.660156 C 17.636719 5.746094 17.523438 5.785156 17.460938 5.746094 C 17.398438 5.707031 17.445312 5.644531 17.578125 5.59375 C 17.734375 5.542969 17.785156 5.460938 17.742188 5.34375 C 17.683594 5.199219 17.738281 5.179688 18.070312 5.226562 C 18.484375 5.277344 18.484375 5.273438 18.261719 4.683594 C 18.21875 4.578125 18.257812 4.554688 18.382812 4.601562 C 18.609375 4.683594 18.613281 4.53125 18.382812 4.3125 C 18.234375 4.164062 18.230469 4.125 18.355469 4.046875 C 18.464844 3.980469 18.535156 4.027344 18.597656 4.21875 C 18.65625 4.390625 18.792969 4.5 19.003906 4.539062 Z M 13.617188 4.269531 C 13.660156 4.582031 13.675781 4.601562 13.761719 4.414062 C 13.828125 4.253906 13.851562 4.296875 13.863281 4.628906 C 13.863281 4.863281 13.808594 5.105469 13.738281 5.171875 C 13.585938 5.324219 13.679688 5.429688 13.988281 5.445312 C 14.117188 5.449219 14.238281 5.511719 14.265625 5.582031 C 14.308594 5.707031 14.011719 5.761719 13.464844 5.71875 C 13.332031 5.707031 13.226562 5.746094 13.226562 5.800781 C 13.226562 5.855469 13.121094 5.878906 12.988281 5.847656 C 12.816406 5.8125 12.789062 5.828125 12.886719 5.894531 C 12.980469 5.964844 12.792969 6.027344 12.277344 6.09375 C 11.761719 6.160156 11.507812 6.160156 11.476562 6.082031 C 11.449219 6.019531 11.425781 6.046875 11.425781 6.132812 C 11.417969 6.222656 11.324219 6.300781 11.207031 6.304688 C 11.046875 6.320312 11.007812 6.265625 11.035156 6.046875 C 11.082031 5.644531 11.089844 5.644531 11.199219 5.816406 C 11.289062 5.953125 11.300781 5.949219 11.308594 5.796875 C 11.308594 5.699219 11.449219 5.542969 11.625 5.453125 C 11.957031 5.289062 12.070312 5.15625 11.785156 5.261719 C 11.703125 5.292969 11.625 5.273438 11.625 5.210938 C 11.625 5.148438 11.542969 5.125 11.441406 5.164062 C 11.339844 5.199219 11.289062 5.1875 11.339844 5.136719 C 11.382812 5.089844 11.585938 5.058594 11.78125 5.070312 C 12.054688 5.089844 12.191406 5.035156 12.351562 4.835938 C 12.554688 4.582031 12.777344 4.460938 12.640625 4.675781 C 12.601562 4.730469 12.625 4.777344 12.683594 4.777344 C 12.742188 4.777344 12.828125 4.710938 12.875 4.628906 C 12.921875 4.546875 13.082031 4.429688 13.226562 4.375 C 13.375 4.316406 13.425781 4.269531 13.332031 4.265625 C 13.195312 4.257812 13.195312 4.242188 13.328125 4.160156 C 13.492188 4.0625 13.589844 4.097656 13.617188 4.269531 Z M 10.320312 4.5 C 10.828125 4.945312 10.457031 5.816406 9.765625 5.816406 C 9.070312 5.816406 8.652344 5.148438 9.007812 4.613281 C 9.339844 4.125 9.851562 4.078125 10.320312 4.5 Z M 22.714844 4.304688 C 23.445312 4.675781 23.1875 5.816406 22.375 5.816406 C 21.269531 5.816406 21.222656 4.25 22.324219 4.160156 C 22.375 4.160156 22.542969 4.222656 22.714844 4.304688 Z M 7.03125 5.613281 C 7.207031 6.070312 7.210938 6.078125 7.761719 6.109375 C 8.421875 6.144531 8.480469 6.296875 7.988281 6.695312 C 7.667969 6.957031 7.660156 6.988281 7.726562 7.535156 C 7.8125 8.195312 7.726562 8.242188 7.128906 7.847656 L 6.753906 7.59375 L 6.367188 7.847656 C 5.660156 8.320312 5.589844 8.238281 5.828125 7.210938 C 5.867188 7.042969 5.769531 6.902344 5.445312 6.652344 C 4.917969 6.25 4.964844 6.128906 5.664062 6.128906 C 6.234375 6.128906 6.230469 6.132812 6.542969 5.261719 C 6.652344 4.972656 6.835938 5.105469 7.03125 5.613281 Z M 25.621094 5.609375 L 25.839844 6.128906 L 26.414062 6.128906 C 27.097656 6.128906 27.121094 6.207031 26.566406 6.664062 L 26.144531 7.011719 L 26.261719 7.507812 C 26.414062 8.128906 26.339844 8.195312 25.824219 7.917969 C 25.3125 7.636719 25.230469 7.636719 24.835938 7.90625 C 24.390625 8.21875 24.207031 8.113281 24.324219 7.613281 C 24.476562 7.003906 24.453125 6.925781 24.054688 6.660156 C 23.515625 6.304688 23.5625 6.128906 24.203125 6.128906 C 24.773438 6.128906 24.871094 6.054688 25.0625 5.480469 C 25.230469 4.960938 25.355469 4.988281 25.621094 5.609375 Z M 19.414062 7.117188 C 20.207031 7.261719 21.097656 7.429688 21.390625 7.484375 C 23.054688 7.808594 24.800781 9.289062 25.550781 11.011719 C 25.738281 11.4375 25.765625 11.839844 25.8125 15.433594 C 25.863281 19.011719 25.882812 19.410156 26.058594 19.640625 C 26.160156 19.78125 26.367188 20.054688 26.511719 20.246094 C 27.238281 21.222656 26.660156 22.371094 25.472656 22.316406 C 24.652344 22.277344 24.484375 21.992188 25.246094 21.941406 C 26.179688 21.875 26.421875 20.875 25.652344 20.257812 C 25.046875 19.769531 25.019531 19.558594 24.960938 15.480469 L 24.90625 11.6875 L 24.558594 10.976562 C 23.878906 9.574219 22.511719 8.558594 20.902344 8.257812 C 20.464844 8.179688 19.558594 8.007812 18.878906 7.878906 C 16.566406 7.433594 13.898438 7.59375 10.84375 8.367188 C 9.441406 8.722656 8.144531 9.730469 7.519531 10.960938 L 7.199219 11.582031 L 7.199219 21.453125 L 7.542969 22.152344 C 8.25 23.617188 9.449219 24.417969 11.519531 24.828125 C 14.058594 25.324219 15.390625 26.53125 15.519531 28.460938 C 15.578125 29.382812 15.996094 29.71875 16.378906 29.152344 C 16.527344 28.921875 16.527344 28.84375 16.367188 28.242188 C 15.867188 26.371094 16.847656 24.261719 18.609375 23.421875 L 19.179688 23.152344 L 22.390625 23.136719 C 24.773438 23.121094 25.601562 23.144531 25.601562 23.234375 C 25.601562 23.582031 23.824219 24.8125 22.792969 25.183594 C 22.074219 25.441406 18.0625 26.253906 17.96875 26.160156 C 17.835938 26.027344 18.222656 25.375 18.46875 25.324219 C 18.609375 25.285156 19.503906 25.097656 20.457031 24.898438 C 21.488281 24.679688 22.441406 24.410156 22.804688 24.238281 L 23.414062 23.945312 L 21.558594 23.921875 C 19.296875 23.882812 18.835938 23.980469 18.042969 24.679688 C 17.039062 25.554688 16.703125 26.652344 17.011719 28.003906 C 17.230469 28.980469 17.167969 29.40625 16.734375 29.757812 C 15.851562 30.480469 14.828125 29.800781 14.828125 28.492188 C 14.828125 27 13.8125 26.175781 11.34375 25.65625 C 8.367188 25.035156 6.671875 23.535156 6.296875 21.191406 C 6.160156 20.324219 6.160156 12.960938 6.292969 12 C 6.644531 9.582031 8.6875 7.796875 11.625 7.328125 C 12.128906 7.25 12.773438 7.125 13.066406 7.0625 C 14.710938 6.691406 17.171875 6.710938 19.414062 7.117188 Z M 17.882812 8.925781 C 21.449219 9.640625 23.808594 12.492188 23.96875 16.285156 L 24.027344 17.660156 L 21.726562 17.660156 L 21.800781 16.890625 C 22.277344 11.765625 15.585938 8.851562 11.972656 12.613281 C 8.25 16.492188 11.414062 22.609375 16.84375 22.035156 C 17.894531 21.925781 18.027344 21.941406 18.027344 22.183594 C 18.027344 22.289062 17.910156 22.335938 17.660156 22.335938 C 16.691406 22.335938 15.523438 23.074219 15.046875 23.988281 C 14.789062 24.46875 14.699219 24.464844 13.105469 23.796875 C 8.628906 21.914062 6.726562 16.597656 9.113281 12.660156 C 9.414062 12.164062 9.460938 12.003906 9.417969 11.613281 C 9.34375 11.007812 9.8125 10.550781 10.351562 10.699219 C 10.628906 10.777344 10.726562 10.746094 11.03125 10.488281 C 12.746094 9.015625 15.375 8.421875 17.882812 8.925781 Z M 6.316406 9.417969 C 6.054688 9.609375 5.996094 9.589844 6.054688 9.304688 C 6.097656 9.089844 6.132812 9.070312 6.296875 9.167969 C 6.476562 9.277344 6.480469 9.296875 6.316406 9.417969 Z M 4.90625 10.179688 C 5.15625 10.179688 5.195312 10.367188 4.960938 10.457031 C 4.871094 10.488281 4.800781 10.644531 4.800781 10.816406 C 4.800781 11.15625 4.734375 11.183594 4.46875 10.949219 C 4.320312 10.820312 4.238281 10.808594 4.054688 10.90625 C 3.765625 11.058594 3.648438 10.960938 3.8125 10.707031 C 3.902344 10.558594 3.898438 10.472656 3.78125 10.320312 C 3.566406 10.046875 3.59375 9.960938 3.871094 10.03125 C 4.070312 10.078125 4.148438 10.03125 4.261719 9.796875 L 4.398438 9.503906 L 4.550781 9.84375 C 4.644531 10.066406 4.769531 10.179688 4.90625 10.179688 Z M 27.839844 9.871094 C 27.925781 10.023438 28.019531 10.0625 28.21875 10.015625 C 28.523438 9.941406 28.550781 10.035156 28.304688 10.304688 C 28.15625 10.460938 28.148438 10.539062 28.25 10.761719 L 28.378906 11.03125 L 27.957031 10.960938 C 27.703125 10.917969 27.515625 10.933594 27.472656 11.007812 C 27.339844 11.21875 27.179688 11.121094 27.242188 10.863281 C 27.289062 10.675781 27.246094 10.570312 27.082031 10.457031 C 26.832031 10.285156 26.894531 10.078125 27.199219 10.078125 C 27.308594 10.078125 27.429688 9.984375 27.464844 9.871094 C 27.550781 9.605469 27.695312 9.605469 27.839844 9.871094 Z M 22.554688 10.03125 C 22.71875 10.175781 22.820312 10.328125 22.785156 10.359375 C 22.675781 10.464844 22.207031 10.171875 22.15625 9.960938 C 22.078125 9.691406 22.207031 9.714844 22.554688 10.03125 Z M 17.308594 12.273438 C 17.894531 12.398438 17.886719 12.386719 17.546875 12.929688 L 17.289062 13.339844 L 16.191406 13.347656 C 15.589844 13.355469 15.023438 13.390625 14.933594 13.433594 C 14.792969 13.496094 14.441406 13.070312 14.203125 12.542969 C 14.042969 12.191406 16.074219 12.015625 17.308594 12.273438 Z M 19.167969 13.328125 L 19.855469 13.976562 L 19.355469 14.324219 L 18.859375 14.679688 L 18.523438 14.320312 C 18.335938 14.128906 18.070312 13.890625 17.929688 13.792969 L 17.675781 13.621094 L 17.929688 13.148438 C 18.261719 12.535156 18.339844 12.550781 19.167969 13.328125 Z M 14.097656 13.234375 L 14.378906 13.6875 L 13.914062 14.0625 C 12.976562 14.828125 12.550781 16.597656 13.046875 17.671875 L 13.214844 18.039062 L 12.734375 18.429688 L 12.261719 18.820312 L 11.984375 18.210938 C 11.214844 16.535156 11.683594 14.398438 13.09375 13.195312 C 13.695312 12.679688 13.75 12.679688 14.097656 13.234375 Z M 3.722656 13.480469 C 4.320312 13.960938 3.980469 14.855469 3.199219 14.855469 C 2.46875 14.855469 2.113281 14.132812 2.566406 13.574219 C 2.832031 13.246094 3.375 13.199219 3.722656 13.480469 Z M 29.542969 13.574219 C 29.996094 14.132812 29.636719 14.855469 28.90625 14.855469 C 28.59375 14.855469 28.441406 14.792969 28.273438 14.582031 C 27.820312 14.019531 28.175781 13.296875 28.90625 13.296875 C 29.222656 13.296875 29.371094 13.359375 29.542969 13.574219 Z M 27.097656 13.859375 C 27.023438 13.945312 27.019531 14.03125 27.078125 14.066406 C 27.136719 14.101562 27.15625 14.21875 27.125 14.324219 C 27.03125 14.683594 27.574219 15.417969 28.019531 15.527344 C 28.25 15.582031 28.265625 15.613281 28.144531 15.765625 C 28.0625 15.859375 28.054688 15.90625 28.121094 15.863281 C 28.191406 15.820312 28.273438 15.863281 28.304688 15.945312 C 28.339844 16.039062 28.304688 16.101562 28.222656 16.101562 C 28.144531 16.101562 28.046875 16.175781 28.011719 16.269531 C 27.898438 16.554688 27.941406 16.828125 28.105469 16.828125 C 28.222656 16.828125 28.246094 16.90625 28.191406 17.167969 C 28.113281 17.578125 27.867188 17.78125 27.550781 17.710938 C 27.425781 17.679688 27.289062 17.707031 27.253906 17.765625 C 27.214844 17.820312 27.238281 17.867188 27.300781 17.867188 C 27.359375 17.867188 27.414062 17.914062 27.414062 17.972656 C 27.414062 18.03125 27.34375 18.078125 27.253906 18.078125 C 27.167969 18.078125 27.09375 18.03125 27.09375 17.972656 C 27.09375 17.753906 26.878906 17.878906 26.871094 18.101562 C 26.859375 18.289062 26.84375 18.300781 26.804688 18.148438 C 26.777344 18.039062 26.835938 17.867188 26.9375 17.757812 C 27.089844 17.597656 27.105469 17.511719 27.007812 17.324219 C 26.902344 17.105469 26.894531 17.105469 26.886719 17.296875 C 26.871094 17.652344 26.671875 17.246094 26.667969 16.859375 C 26.667969 16.632812 26.734375 16.492188 26.878906 16.414062 C 27.09375 16.304688 27.179688 15.804688 27.011719 15.644531 C 26.859375 15.488281 26.917969 13.714844 27.078125 13.714844 C 27.195312 13.714844 27.199219 13.746094 27.097656 13.859375 Z M 20.367188 15.125 C 20.660156 16.046875 20.65625 17 20.351562 17.90625 C 20.070312 18.75 19.960938 18.8125 19.441406 18.433594 C 19.222656 18.273438 19.023438 18.132812 19.007812 18.125 C 18.992188 18.113281 19.035156 17.972656 19.097656 17.804688 C 19.40625 17.023438 19.425781 16.164062 19.140625 15.210938 C 19.089844 15.03125 19.167969 14.9375 19.535156 14.722656 C 20.148438 14.355469 20.121094 14.339844 20.367188 15.125 Z M 16.480469 15.167969 L 16.785156 15.789062 L 17.449219 15.789062 C 18.324219 15.789062 18.351562 15.878906 17.664062 16.457031 L 17.089844 16.933594 L 17.238281 17.574219 C 17.429688 18.367188 17.40625 18.382812 16.769531 17.988281 C 16.128906 17.589844 16.128906 17.589844 15.460938 17.984375 C 14.820312 18.367188 14.761719 18.335938 14.917969 17.722656 C 15.109375 16.992188 15.078125 16.890625 14.511719 16.457031 C 13.84375 15.945312 13.878906 15.851562 14.726562 15.789062 L 15.40625 15.738281 L 15.703125 15.140625 C 16.070312 14.398438 16.101562 14.398438 16.480469 15.167969 Z M 5.046875 15.296875 C 5.082031 15.578125 5.0625 15.765625 4.980469 15.8125 C 4.878906 15.875 4.878906 15.890625 4.980469 15.894531 C 5.050781 15.894531 5.109375 15.976562 5.109375 16.078125 C 5.109375 16.175781 5.113281 16.605469 5.121094 17.027344 C 5.125 17.449219 5.078125 17.847656 5.019531 17.90625 C 4.9375 17.984375 4.90625 17.976562 4.90625 17.882812 C 4.90625 17.789062 4.851562 17.785156 4.710938 17.863281 C 4.476562 17.984375 4.375 17.914062 4.375 17.636719 C 4.375 17.53125 4.324219 17.46875 4.265625 17.503906 C 4.207031 17.542969 4.160156 17.46875 4.160156 17.347656 C 4.160156 17.230469 4.113281 17.15625 4.054688 17.195312 C 3.914062 17.277344 3.914062 16.902344 4.054688 16.765625 C 4.203125 16.621094 4.289062 16.179688 4.15625 16.261719 C 4.097656 16.292969 4.078125 16.378906 4.121094 16.445312 C 4.160156 16.511719 4.070312 16.441406 3.910156 16.277344 C 3.59375 15.957031 3.5625 15.882812 3.761719 15.921875 C 3.828125 15.9375 3.902344 15.832031 3.925781 15.691406 C 3.972656 15.378906 4.230469 15.171875 4.570312 15.171875 C 4.753906 15.167969 4.804688 15.121094 4.761719 15.011719 C 4.726562 14.921875 4.757812 14.855469 4.84375 14.855469 C 4.929688 14.855469 5.007812 15.027344 5.046875 15.296875 Z M 2.03125 16.210938 C 2.425781 16.414062 2.179688 16.996094 1.738281 16.914062 C 1.507812 16.871094 1.425781 16.460938 1.605469 16.253906 C 1.761719 16.070312 1.769531 16.070312 2.03125 16.210938 Z M 29.207031 16.558594 C 29.148438 16.949219 28.585938 16.921875 28.585938 16.535156 C 28.585938 16.320312 28.644531 16.207031 28.773438 16.179688 C 29.035156 16.125 29.242188 16.304688 29.207031 16.558594 Z M 3.296875 16.347656 C 3.441406 16.523438 3.339844 16.828125 3.140625 16.828125 C 2.921875 16.828125 2.757812 16.472656 2.90625 16.324219 C 3.066406 16.171875 3.148438 16.175781 3.296875 16.347656 Z M 30.640625 16.398438 C 30.71875 16.691406 30.527344 16.933594 30.234375 16.933594 C 30.003906 16.933594 29.972656 16.886719 29.972656 16.570312 C 29.972656 16.148438 30.535156 16.003906 30.640625 16.398438 Z M 3.769531 18.332031 C 4.335938 18.839844 3.996094 19.738281 3.230469 19.738281 C 2.820312 19.738281 2.347656 19.355469 2.347656 19.023438 C 2.347656 18.222656 3.195312 17.8125 3.769531 18.332031 Z M 29.449219 18.378906 C 29.835938 18.757812 29.851562 19.140625 29.5 19.484375 C 28.980469 19.988281 28.054688 19.664062 28.054688 18.984375 C 28.054688 18.15625 28.851562 17.800781 29.449219 18.378906 Z M 13.742188 18.734375 C 14.394531 19.40625 15.808594 19.742188 16.96875 19.503906 C 17.332031 19.425781 17.371094 19.441406 17.636719 19.835938 C 18.042969 20.433594 18.03125 20.480469 17.441406 20.632812 C 15.753906 21.074219 13.609375 20.507812 12.757812 19.394531 L 12.542969 19.117188 L 12.910156 18.808594 C 13.359375 18.433594 13.445312 18.425781 13.742188 18.734375 Z M 19.195312 18.777344 C 19.429688 18.933594 19.621094 19.144531 19.621094 19.246094 C 19.625 19.410156 19.796875 19.425781 21.683594 19.425781 C 23.882812 19.425781 24.214844 19.496094 24.214844 19.957031 C 24.214844 20.574219 24.222656 20.570312 21.386719 20.570312 L 18.777344 20.570312 L 18.292969 19.972656 C 17.839844 19.40625 17.707031 19.117188 17.902344 19.117188 C 17.953125 19.117188 18.132812 18.976562 18.304688 18.808594 C 18.683594 18.429688 18.675781 18.429688 19.195312 18.777344 Z M 9.035156 22.210938 C 9.359375 22.257812 9.585938 22.527344 9.386719 22.648438 C 9.167969 22.78125 9.035156 22.652344 9.195312 22.464844 C 9.316406 22.320312 9.300781 22.308594 9.09375 22.363281 C 8.820312 22.429688 8.511719 22.003906 8.625 21.710938 C 8.660156 21.613281 8.703125 21.664062 8.742188 21.867188 C 8.785156 22.085938 8.871094 22.191406 9.035156 22.210938 Z M 23.765625 22.152344 C 23.796875 22.320312 23.632812 22.335938 21.402344 22.335938 C 19.082031 22.335938 18.761719 22.292969 18.933594 22.023438 C 19.066406 21.8125 23.722656 21.941406 23.765625 22.152344 Z M 28.15625 22.070312 C 28.332031 22.273438 28.191406 22.648438 27.945312 22.648438 C 27.683594 22.648438 27.589844 22.488281 27.667969 22.175781 C 27.742188 21.890625 27.960938 21.84375 28.15625 22.070312 Z M 4.742188 22.253906 C 4.953125 22.546875 4.949219 22.742188 4.730469 22.976562 C 4.390625 23.34375 3.734375 23.082031 3.734375 22.585938 C 3.734375 22.054688 4.433594 21.828125 4.742188 22.253906 Z M 5.441406 23.058594 C 5.441406 23.207031 5.492188 23.25 5.625 23.203125 C 5.785156 23.15625 5.785156 23.167969 5.652344 23.261719 C 5.398438 23.4375 5.28125 23.394531 5.265625 23.113281 C 5.257812 22.96875 5.289062 22.855469 5.34375 22.855469 C 5.398438 22.855469 5.441406 22.949219 5.441406 23.058594 Z M 16.710938 24.160156 C 16.769531 24.351562 15.808594 25.308594 15.679688 25.183594 C 15.59375 25.097656 15.679688 24.921875 16 24.527344 C 16.40625 24.027344 16.632812 23.910156 16.710938 24.160156 Z M 26.613281 24.515625 C 26.710938 24.671875 26.574219 25.011719 26.390625 25.078125 C 25.941406 25.246094 25.585938 24.546875 25.996094 24.324219 C 26.1875 24.222656 26.484375 24.316406 26.613281 24.515625 Z M 6.246094 24.527344 C 6.351562 24.859375 5.96875 25.203125 5.664062 25.042969 C 5.449219 24.933594 5.355469 24.527344 5.507812 24.378906 C 5.679688 24.210938 6.175781 24.316406 6.246094 24.527344 Z M 7.792969 26.292969 C 7.871094 26.433594 7.984375 26.492188 8.117188 26.460938 C 8.335938 26.402344 8.40625 26.636719 8.207031 26.757812 C 8.132812 26.796875 8.148438 26.90625 8.261719 27.074219 C 8.425781 27.316406 8.425781 27.324219 8.121094 27.324219 C 7.898438 27.324219 7.796875 27.382812 7.753906 27.53125 C 7.722656 27.644531 7.652344 27.738281 7.59375 27.738281 C 7.535156 27.738281 7.464844 27.644531 7.433594 27.53125 C 7.390625 27.375 7.289062 27.324219 7.035156 27.324219 C 6.6875 27.324219 6.6875 27.324219 6.886719 27.109375 C 7.050781 26.933594 7.0625 26.859375 6.953125 26.695312 C 6.773438 26.40625 6.792969 26.378906 7.097656 26.449219 C 7.316406 26.5 7.386719 26.476562 7.433594 26.292969 C 7.507812 26.019531 7.636719 26.011719 7.792969 26.292969 Z M 24.59375 26.292969 C 24.644531 26.460938 24.71875 26.496094 24.917969 26.445312 C 25.207031 26.378906 25.226562 26.414062 25.046875 26.695312 C 24.9375 26.859375 24.953125 26.933594 25.125 27.121094 L 25.332031 27.34375 L 25.011719 27.308594 C 24.761719 27.28125 24.671875 27.324219 24.585938 27.503906 C 24.457031 27.796875 24.320312 27.804688 24.246094 27.523438 C 24.207031 27.382812 24.105469 27.316406 23.957031 27.328125 C 23.566406 27.359375 23.535156 27.328125 23.734375 27.113281 C 23.914062 26.921875 23.914062 26.894531 23.75 26.714844 C 23.492188 26.445312 23.53125 26.363281 23.878906 26.433594 C 24.128906 26.492188 24.199219 26.464844 24.246094 26.289062 C 24.316406 26.011719 24.5 26.011719 24.59375 26.292969 Z M 12.320312 28.152344 C 12.320312 28.546875 12.070312 28.695312 11.78125 28.460938 C 11.589844 28.308594 11.578125 27.878906 11.761719 27.804688 C 12.117188 27.660156 12.320312 27.785156 12.320312 28.152344 Z M 20.398438 28.007812 C 20.507812 28.242188 20.496094 28.300781 20.320312 28.421875 C 19.925781 28.710938 19.550781 28.464844 19.667969 27.996094 C 19.765625 27.628906 20.222656 27.640625 20.398438 28.007812 Z M 20.398438 28.007812 "/>
<path style=" stroke:none;fill-rule:nonzero;fill:rgb(97.254902%,46.666667%,37.254903%);fill-opacity:1;" d="M 9.417969 4.847656 C 9.347656 5.027344 9.488281 5.3125 9.675781 5.375 C 9.898438 5.449219 10.144531 5.09375 10.019531 4.878906 C 9.886719 4.632812 9.507812 4.613281 9.417969 4.847656 Z M 9.417969 4.847656 "/>
<path style=" stroke:none;fill-rule:nonzero;fill:rgb(97.254902%,46.666667%,37.254903%);fill-opacity:1;" d="M 22.101562 4.800781 C 21.914062 4.980469 21.945312 5.171875 22.179688 5.292969 C 22.378906 5.398438 22.71875 5.210938 22.71875 5.003906 C 22.71875 4.882812 22.480469 4.675781 22.347656 4.675781 C 22.28125 4.675781 22.171875 4.730469 22.101562 4.800781 Z M 22.101562 4.800781 "/>
<path style=" stroke:none;fill-rule:nonzero;fill:rgb(97.254902%,46.666667%,37.254903%);fill-opacity:1;" d="M 10 11.125 C 9.738281 11.273438 9.753906 11.808594 10.027344 11.945312 C 10.492188 12.191406 10.960938 11.59375 10.609375 11.214844 C 10.398438 10.984375 10.273438 10.96875 10 11.125 Z M 10 11.125 "/>
<path style=" stroke:none;fill-rule:nonzero;fill:rgb(97.254902%,46.666667%,37.254903%);fill-opacity:1;" d="M 22.257812 16.292969 C 21.941406 16.632812 22.105469 17.039062 22.558594 17.039062 C 23.007812 17.039062 23.195312 16.582031 22.875 16.261719 C 22.652344 16.050781 22.476562 16.0625 22.257812 16.292969 Z M 22.257812 16.292969 "/>
<path style=" stroke:none;fill-rule:nonzero;fill:rgb(97.254902%,46.666667%,37.254903%);fill-opacity:1;" d="M 9.183594 16.539062 C 9.054688 16.875 9.164062 17.136719 9.457031 17.203125 C 9.765625 17.28125 10.027344 17.089844 10.027344 16.789062 C 10.027344 16.304688 9.347656 16.109375 9.183594 16.539062 Z M 9.183594 16.539062 "/>
<path style=" stroke:none;fill-rule:nonzero;fill:rgb(97.254902%,46.666667%,37.254903%);fill-opacity:1;" d="M 2.949219 13.78125 C 2.84375 13.890625 2.871094 14.316406 2.988281 14.386719 C 3.195312 14.511719 3.519531 14.324219 3.519531 14.082031 C 3.519531 13.796875 3.140625 13.597656 2.949219 13.78125 Z M 2.949219 13.78125 "/>
<path style=" stroke:none;fill-rule:nonzero;fill:rgb(97.254902%,46.666667%,37.254903%);fill-opacity:1;" d="M 28.660156 13.777344 C 28.527344 13.910156 28.582031 14.308594 28.746094 14.371094 C 29.03125 14.480469 29.242188 14.324219 29.207031 14.035156 C 29.171875 13.769531 28.835938 13.609375 28.660156 13.777344 Z M 28.660156 13.777344 "/>
<path style=" stroke:none;fill-rule:nonzero;fill:rgb(97.254902%,46.666667%,37.254903%);fill-opacity:1;" d="M 2.910156 18.765625 C 2.832031 18.96875 3.003906 19.261719 3.230469 19.300781 C 3.472656 19.347656 3.679688 18.9375 3.515625 18.746094 C 3.34375 18.542969 2.996094 18.554688 2.910156 18.765625 Z M 2.910156 18.765625 "/>
<path style=" stroke:none;fill-rule:nonzero;fill:rgb(97.254902%,46.666667%,37.254903%);fill-opacity:1;" d="M 28.597656 18.78125 C 28.515625 18.929688 28.527344 19.039062 28.640625 19.175781 C 28.832031 19.4375 29.171875 19.253906 29.171875 18.898438 C 29.171875 18.574219 28.757812 18.492188 28.597656 18.78125 Z M 28.597656 18.78125 "/>
<path style=" stroke:none;fill-rule:nonzero;fill:rgb(97.254902%,46.666667%,37.254903%);fill-opacity:1;" d="M 26.011719 25.992188 C 25.929688 26.167969 25.980469 26.492188 26.085938 26.492188 C 26.28125 26.492188 26.339844 26.246094 26.171875 26.097656 C 26.089844 26.023438 26.019531 25.976562 26.011719 25.992188 Z M 26.011719 25.992188 "/>
</g>
</svg>
